<svg width="267" height="268" viewBox="0 0 267 268" fill="none" xmlns="http://www.w3.org/2000/svg">
<g filter="url(#filter0_d_185_1454)">
<rect x="96.2578" y="7.2002" width="74" height="74" rx="10" fill="white"/>
<rect x="96.7578" y="7.7002" width="73" height="73" rx="9.5" stroke="black" stroke-opacity="0.2"/>
<path d="M140.432 38.4291L137.152 48.1092L133.856 38.4291H132.752L129.408 48.0612L126.176 38.4291H124.96L128.736 49.6292H129.968L133.264 40.0772L136.544 49.6292H137.792L141.568 38.4291H140.432Z" fill="black"/>
<rect x="11.0977" y="92.5342" width="74" height="74" rx="10" fill="white"/>
<rect x="11.5977" y="93.0342" width="73" height="73" rx="9.5" stroke="black" stroke-opacity="0.2"/>
<path d="M52.5544 134.963H53.8024L48.6824 123.763H47.5144L42.3944 134.963H43.6264L44.9704 131.971H51.2104L52.5544 134.963ZM45.4024 131.011L48.0904 124.995L50.7784 131.011H45.4024Z" fill="black"/>
<rect x="96.2578" y="92.5342" width="74" height="74" rx="10" fill="white"/>
<rect x="96.7578" y="93.0342" width="73" height="73" rx="9.5" stroke="black" stroke-opacity="0.2"/>
<path d="M133.248 135.059C136.112 135.059 137.424 133.651 137.424 132.003C137.424 127.923 130.528 129.779 130.528 126.707C130.528 125.587 131.44 124.675 133.488 124.675C134.48 124.675 135.6 124.979 136.56 125.603L136.96 124.659C136.064 124.035 134.752 123.667 133.488 123.667C130.64 123.667 129.36 125.091 129.36 126.739C129.36 130.883 136.256 128.995 136.256 132.067C136.256 133.171 135.344 134.051 133.248 134.051C131.776 134.051 130.352 133.475 129.552 132.691L129.088 133.603C129.92 134.467 131.568 135.059 133.248 135.059Z" fill="black"/>
<rect x="11.0977" y="178.934" width="244" height="74" rx="10" fill="white"/>
<rect x="11.5977" y="179.434" width="243" height="73" rx="9.5" stroke="black" stroke-opacity="0.2"/>
<path d="M97.8116 221.459C100.676 221.459 101.988 220.051 101.988 218.403C101.988 214.323 95.0916 216.179 95.0916 213.107C95.0916 211.987 96.0036 211.075 98.0516 211.075C99.0436 211.075 100.164 211.379 101.124 212.003L101.524 211.059C100.628 210.435 99.3156 210.067 98.0516 210.067C95.2036 210.067 93.9236 211.491 93.9236 213.139C93.9236 217.283 100.82 215.395 100.82 218.467C100.82 219.571 99.9076 220.451 97.8116 220.451C96.3396 220.451 94.9156 219.875 94.1156 219.091L93.6516 220.003C94.4836 220.867 96.1316 221.459 97.8116 221.459ZM108.663 212.883C107.271 212.883 106.103 213.491 105.415 214.611V212.947H104.327V224.467H105.463V219.779C106.167 220.867 107.319 221.443 108.663 221.443C111.063 221.443 112.855 219.715 112.855 217.155C112.855 214.611 111.063 212.883 108.663 212.883ZM108.583 220.435C106.791 220.435 105.447 219.123 105.447 217.155C105.447 215.203 106.791 213.875 108.583 213.875C110.359 213.875 111.719 215.203 111.719 217.155C111.719 219.123 110.359 220.435 108.583 220.435ZM118.068 212.883C116.74 212.883 115.492 213.299 114.644 214.019L115.156 214.867C115.844 214.259 116.868 213.875 117.956 213.875C119.524 213.875 120.34 214.659 120.34 216.099V216.611H117.668C115.252 216.611 114.42 217.699 114.42 218.995C114.42 220.451 115.588 221.443 117.492 221.443C118.884 221.443 119.876 220.915 120.388 220.051V221.363H121.476V216.147C121.476 213.971 120.244 212.883 118.068 212.883ZM117.668 220.547C116.324 220.547 115.54 219.939 115.54 218.963C115.54 218.099 116.068 217.459 117.7 217.459H120.34V218.835C119.892 219.939 118.948 220.547 117.668 220.547ZM128.081 221.443C129.505 221.443 130.705 220.867 131.377 219.779L130.529 219.203C129.953 220.051 129.057 220.435 128.081 220.435C126.241 220.435 124.897 219.139 124.897 217.155C124.897 215.187 126.241 213.875 128.081 213.875C129.057 213.875 129.953 214.275 130.529 215.123L131.377 214.547C130.705 213.443 129.505 212.883 128.081 212.883C125.569 212.883 123.745 214.643 123.745 217.155C123.745 219.667 125.569 221.443 128.081 221.443ZM140.812 217.155C140.812 214.627 139.1 212.883 136.732 212.883C134.364 212.883 132.62 214.659 132.62 217.155C132.62 219.651 134.412 221.443 137.036 221.443C138.364 221.443 139.532 220.963 140.284 220.067L139.644 219.331C139.004 220.067 138.092 220.435 137.068 220.435C135.228 220.435 133.884 219.267 133.756 217.507H140.796C140.796 217.379 140.812 217.251 140.812 217.155ZM136.732 213.859C138.38 213.859 139.58 215.011 139.724 216.659H133.756C133.9 215.011 135.1 213.859 136.732 213.859ZM151.648 212.883C150.304 212.883 149.152 213.459 148.448 214.547V209.491H147.312V221.363H148.4V219.699C149.088 220.835 150.256 221.443 151.648 221.443C154.048 221.443 155.84 219.699 155.84 217.155C155.84 214.611 154.048 212.883 151.648 212.883ZM151.568 220.435C149.776 220.435 148.432 219.123 148.432 217.155C148.432 215.187 149.776 213.875 151.568 213.875C153.344 213.875 154.704 215.187 154.704 217.155C154.704 219.123 153.344 220.435 151.568 220.435ZM161.053 212.883C159.725 212.883 158.477 213.299 157.629 214.019L158.141 214.867C158.829 214.259 159.853 213.875 160.941 213.875C162.509 213.875 163.325 214.659 163.325 216.099V216.611H160.653C158.237 216.611 157.405 217.699 157.405 218.995C157.405 220.451 158.573 221.443 160.477 221.443C161.869 221.443 162.861 220.915 163.373 220.051V221.363H164.461V216.147C164.461 213.971 163.229 212.883 161.053 212.883ZM160.653 220.547C159.309 220.547 158.525 219.939 158.525 218.963C158.525 218.099 159.053 217.459 160.685 217.459H163.325V218.835C162.877 219.939 161.933 220.547 160.653 220.547ZM168.634 214.595V212.947H167.546V221.363H168.682V217.075C168.682 215.091 169.754 213.971 171.514 213.971C171.594 213.971 171.69 213.987 171.786 213.987V212.883C170.234 212.883 169.162 213.475 168.634 214.595Z" fill="black"/>
<rect x="181.418" y="92.5342" width="74" height="74" rx="10" fill="white"/>
<rect x="181.918" y="93.0342" width="73" height="73" rx="9.5" stroke="black" stroke-opacity="0.2"/>
<path d="M213.634 134.963H218.194C221.778 134.963 224.194 132.659 224.194 129.363C224.194 126.067 221.778 123.763 218.194 123.763H213.634V134.963ZM214.818 133.939V124.787H218.13C221.106 124.787 223.026 126.675 223.026 129.363C223.026 132.051 221.106 133.939 218.13 133.939H214.818Z" fill="black"/>
<g filter="url(#filter1_d_185_1454)">
<rect x="11.0977" y="7.2002" width="74" height="74" rx="10" fill="white"/>
<rect x="11.5977" y="7.7002" width="73" height="73" rx="9.5" stroke="black" stroke-opacity="0.2"/>
<path d="M53.9143 49.8852C53.3223 50.5732 52.6343 50.9092 51.7863 50.9092C50.9863 50.9092 50.2023 50.5092 49.3543 49.6132C52.0743 49.0852 53.9783 46.8932 53.9783 44.0292C53.9783 40.7492 51.4663 38.3331 48.1063 38.3331C44.7143 38.3331 42.2183 40.7652 42.2183 44.0292C42.2183 47.2292 44.6183 49.6292 47.8983 49.7252C49.3703 51.2612 50.4583 51.8532 51.7703 51.8532C52.8583 51.8532 53.8023 51.4052 54.4903 50.5732L53.9143 49.8852ZM43.3863 44.0292C43.3863 41.3731 45.4023 39.3891 48.1063 39.3891C50.7943 39.3891 52.7943 41.3731 52.7943 44.0292C52.7943 46.6852 50.7943 48.6692 48.1063 48.6692C45.4023 48.6692 43.3863 46.6852 43.3863 44.0292Z" fill="black"/>
</g>
<g filter="url(#filter2_d_185_1454)">
<rect x="181.418" y="7.2002" width="74" height="74" rx="10" fill="white"/>
<rect x="181.918" y="7.7002" width="73" height="73" rx="9.5" stroke="black" stroke-opacity="0.2"/>
<path d="M216.604 48.6052V44.4452H222.396V43.4372H216.604V39.4531H223.1V38.4291H215.42V49.6292H223.34V48.6052H216.604Z" fill="black"/>
</g>
</g>
<defs>
<filter id="filter0_d_185_1454" x="0.0976562" y="0.200195" width="266.32" height="267.733" filterUnits="userSpaceOnUse" color-interpolation-filters="sRGB">
<feFlood flood-opacity="0" result="BackgroundImageFix"/>
<feColorMatrix in="SourceAlpha" type="matrix" values="0 0 0 0 0 0 0 0 0 0 0 0 0 0 0 0 0 0 127 0" result="hardAlpha"/>
<feOffset dy="4"/>
<feGaussianBlur stdDeviation="5.5"/>
<feComposite in2="hardAlpha" operator="out"/>
<feColorMatrix type="matrix" values="0 0 0 0 0 0 0 0 0 0 0 0 0 0 0 0 0 0 0.25 0"/>
<feBlend mode="normal" in2="BackgroundImageFix" result="effect1_dropShadow_185_1454"/>
<feBlend mode="normal" in="SourceGraphic" in2="effect1_dropShadow_185_1454" result="shape"/>
</filter>
<filter id="filter1_d_185_1454" x="0.0976562" y="0.200195" width="96" height="96" filterUnits="userSpaceOnUse" color-interpolation-filters="sRGB">
<feFlood flood-opacity="0" result="BackgroundImageFix"/>
<feColorMatrix in="SourceAlpha" type="matrix" values="0 0 0 0 0 0 0 0 0 0 0 0 0 0 0 0 0 0 127 0" result="hardAlpha"/>
<feOffset dy="4"/>
<feGaussianBlur stdDeviation="5.5"/>
<feComposite in2="hardAlpha" operator="out"/>
<feColorMatrix type="matrix" values="0 0 0 0 0 0 0 0 0 0 0 0 0 0 0 0 0 0 0.25 0"/>
<feBlend mode="normal" in2="BackgroundImageFix" result="effect1_dropShadow_185_1454"/>
<feBlend mode="normal" in="SourceGraphic" in2="effect1_dropShadow_185_1454" result="shape"/>
</filter>
<filter id="filter2_d_185_1454" x="170.418" y="0.200195" width="96" height="96" filterUnits="userSpaceOnUse" color-interpolation-filters="sRGB">
<feFlood flood-opacity="0" result="BackgroundImageFix"/>
<feColorMatrix in="SourceAlpha" type="matrix" values="0 0 0 0 0 0 0 0 0 0 0 0 0 0 0 0 0 0 127 0" result="hardAlpha"/>
<feOffset dy="4"/>
<feGaussianBlur stdDeviation="5.5"/>
<feComposite in2="hardAlpha" operator="out"/>
<feColorMatrix type="matrix" values="0 0 0 0 0 0 0 0 0 0 0 0 0 0 0 0 0 0 0.25 0"/>
<feBlend mode="normal" in2="BackgroundImageFix" result="effect1_dropShadow_185_1454"/>
<feBlend mode="normal" in="SourceGraphic" in2="effect1_dropShadow_185_1454" result="shape"/>
</filter>
</defs>
</svg>
